<svg height="512" viewBox="0 0 64 64" width="512" xmlns="http://www.w3.org/2000/svg">
   <path fill="#FFFFFF" d="m18.565 18.565c1.15-1.15 1.474-2.769.707-3.536a1.557 1.557 0 0 0 -1.126-.416 3.6 3.6 0 0 0 -2.41 1.123c-1.15 1.15-1.473 2.769-.707 3.536s2.386.441 3.536-.707z"/>
   <path fill="#FFFFFF" d="m22.808 22.808c4.729-4.731 6.423-10.845 4.094-14.176l-.574-.686a5.893 5.893 0 0 0 -4.272-1.568 10.349 10.349 0 0 0 -2.193.25 17.489 17.489 0 0 0 -8.369 4.866 17.489 17.489 0 0 0 -4.866 8.369c-.591 2.717-.123 5.01 1.315 6.462l.689.577c3.332 2.33 9.446.636 14.176-4.094zm-8.486-8.486c1.949-1.948 4.8-2.267 6.364-.707s1.243 4.415-.707 6.364a5.532 5.532 0 0 1 -3.826 1.7 3.522 3.522 0 0 1 -2.538-.99c-1.559-1.563-1.242-4.418.707-6.367z"/>
   <path fill="#FFFFFF" d="m54.625 46.149a3.044 3.044 0 0 0 -4.235 0 1.008 1.008 0 0 1 -.709.295 1 1 0 0 1 -.707-.294l-5.774-5.784a12.248 12.248 0 0 1 -2.836 2.834l5.782 5.774a1 1 0 0 1 0 1.417 2.978 2.978 0 0 0 0 4.231 3.044 3.044 0 0 0 4.235 0 2.966 2.966 0 0 0 .862-2.322 1 1 0 0 1 .291-.77.99.99 0 0 1 .77-.291 2.983 2.983 0 0 0 2.322-5.093z"/>
   <path fill="#FFFFFF" d="m41.14 25.625-11.251-13.425c.013 3.813-1.975 8.333-5.667 12.025s-8.185 5.675-11.991 5.675h-.029l13.423 11.24a11.013 11.013 0 0 0 15.515-15.515z"/>
</svg>